<?xml version="1.0" standalone="no"?><!DOCTYPE svg PUBLIC "-//W3C//DTD SVG 1.1//EN" "http://www.w3.org/Graphics/SVG/1.1/DTD/svg11.dtd"><svg class="icon" width="200px" height="200.00px" viewBox="0 0 1024 1024" version="1.1" xmlns="http://www.w3.org/2000/svg"><path d="M511.3 227.7c-178.4 0-303.5 76.5-303.5 76.5 68.6-61.2 188.3-96.5 188.3-96.5l-11.3-11.3c-112.5 2-214.3 79.9-214.3 79.9C56.1 515.2 63.4 721.5 63.4 721.5 156.6 841.9 295 833.3 295 833.3l47.3-59.9c-83.2-18-135.8-91.8-135.8-91.8s125.1 85.2 304.8 85.2 304.8-85.2 304.8-85.2-52.6 73.9-135.8 91.8l47.3 59.9S866 842 959.2 721.5c0 0 7.3-206.3-107.2-445.2 0 0-101.8-77.9-214.3-79.9l-11.3 11.3s119.8 35.3 188.3 96.5c0.1 0-125-76.5-303.4-76.5M373.6 479.9c43.3 0 78.5 37.9 77.9 84.5 0 45.9-34.6 84.5-77.9 84.5-42.6 0-77.2-38.6-77.2-84.5 0-46.6 33.9-84.5 77.2-84.5m277.5 0c43.3 0 77.9 37.9 77.9 84.5 0 45.9-34.6 84.5-77.9 84.5-42.6 0-77.2-38.6-77.2-84.5 0-46.6 33.9-84.5 77.2-84.5z" fill="#000000" /></svg>