<?xml version="1.0" encoding="UTF-8"?>
<svg width="17px" height="16px" viewBox="0 0 17 16" version="1.1" xmlns="http://www.w3.org/2000/svg" xmlns:xlink="http://www.w3.org/1999/xlink">
    <!-- Generator: Sketch 57.1 (83088) - https://sketch.com -->
    <title>kakao</title>
    <desc>Created with Sketch.</desc>
    <g id="页面1" stroke="none" stroke-width="1" fill="none" fill-rule="evenodd">
        <g id="ONT.IO-Web2" transform="translate(-1123.000000, -5224.000000)" fill="#000000">
            <g id="kakao" transform="translate(1123.000000, 5224.000000)">
                <g id="编组">
                    <path d="M8.46138217,0.0120927961 C3.78822955,0.0120927961 0,3.08481563 0,6.87495971 C0,9.28400488 1.531663,11.401221 3.84752137,12.6260317 L3.20834188,15.9999609 L6.86751648,13.6135189 C7.39477411,13.6953944 7.92757998,13.7359121 8.46138217,13.7359121 C13.135453,13.7359121 16.9246007,10.6641074 16.9246007,6.87396337 C16.9226862,3.08481563 13.1344567,0.0120927961 8.46138217,0.0120927961 Z M4.1713895,8.90557265 C4.1713895,9.00065446 4.13370452,9.09382173 4.06685226,9.16159219 C4.00068376,9.22928449 3.91017338,9.26759463 3.81556044,9.26796581 L3.73550183,9.26796581 C3.64057631,9.26782906 3.54959707,9.22951893 3.48321368,9.16159219 C3.41636142,9.09313797 3.37881319,9.00126007 3.37873504,8.90557265 L3.37873504,5.90435165 L2.51166789,5.90435165 C2.44116239,5.90464469 2.37194628,5.88510867 2.31212698,5.84787302 C2.2557265,5.81216117 2.21085226,5.76080098 2.18315018,5.70006349 C2.16490354,5.65983883 2.15529182,5.61619536 2.15492063,5.57208303 C2.15583883,5.48264713 2.19407082,5.39770452 2.26029792,5.33765079 C2.3285177,5.27415873 2.41850061,5.23913065 2.51166789,5.23972854 L5.02900122,5.23972854 C5.10050305,5.23972854 5.1701685,5.25858852 5.22856166,5.2962149 C5.36744322,5.37932112 5.42308181,5.55262515 5.35851526,5.70104029 C5.33997558,5.74065934 5.31403175,5.77644933 5.28220757,5.80643712 C5.21336264,5.87016361 5.12279365,5.9051917 5.02900122,5.90435165 L4.17230769,5.90435165 L4.17230769,8.90557265 L4.1713895,8.90557265 Z M8.388884,9.09200488 C8.35256654,9.1515116 8.29952625,9.19898413 8.23634676,9.22844444 L8.1629304,9.2623199 C8.07662027,9.30186081 7.97810012,9.30506471 7.88942613,9.27124786 C7.80075214,9.23745055 7.72938706,9.16944567 7.69131136,9.08252991 L7.39942369,8.43014408 L5.75290842,8.43014408 L5.46299389,9.07879853 C5.4247619,9.165558 5.35326007,9.23332845 5.26456654,9.26698901 C5.1759707,9.30055189 5.07752869,9.2971917 4.9912967,9.25767033 L4.91788034,9.22471306 C4.85417338,9.19525275 4.80074237,9.1473895 4.76442491,9.08725763 C4.70069841,8.98356044 4.69192674,8.85513065 4.74092308,8.74363858 L6.17185836,5.55039805 L6.18223199,5.52025397 C6.19170696,5.48370208 6.20657387,5.44883028 6.22650061,5.41671306 C6.23214652,5.40731624 6.23871062,5.39786081 6.25473016,5.37717216 C6.31874969,5.27339683 6.43207814,5.21035409 6.55410012,5.21051009 C6.56914286,5.21051009 6.58234921,5.21051009 6.61339194,5.2143199 C6.71802686,5.21891087 6.81539438,5.26911844 6.87980464,5.3517558 C6.92696459,5.40053724 6.95962882,5.46150916 6.97390965,5.52781441 L8.49244444,8.92440537 L8.388884,9.09100855 L8.388884,9.09200488 Z M11.424,9.08252991 C11.406906,9.11564347 11.3843028,9.14557265 11.3571477,9.17104762 C11.2882247,9.23393407 11.198105,9.26859096 11.1048596,9.26797412 L9.02808303,9.26797412 L8.99045665,9.26704762 C8.93300122,9.26087424 8.87767521,9.24194383 8.82852259,9.21150672 C8.77815873,9.18060073 8.73664469,9.13709402 8.70802442,9.08536264 L8.67223443,9.02607082 L8.67223443,5.60123077 C8.67223443,5.50614896 8.70986081,5.41296215 8.77671306,5.3451917 C8.84309646,5.27720635 8.93405617,5.23881807 9.02900122,5.23881807 L9.10995849,5.23881807 C9.20322344,5.23881807 9.29449573,5.27644444 9.36134799,5.3451917 C9.42728205,5.41196581 9.46488889,5.50523077 9.46488889,5.60123077 L9.46488889,8.60993407 L11.1048596,8.60993407 C11.2100806,8.61038339 11.3104371,8.65473016 11.3816459,8.73232723 L11.5228132,8.89426129 L11.424,9.08161172 L11.424,9.08252991 Z M14.7499292,9.01950672 C14.7248254,9.07162882 14.6873553,9.11687424 14.6407228,9.1512967 L14.5767619,9.1992967 C14.4689426,9.27697192 14.3272283,9.28926007 14.2077265,9.23125763 C14.1566789,9.20517705 14.1124884,9.16747253 14.0787497,9.12115263 L12.9584762,7.56497192 L12.4887131,8.06392186 L12.4887131,8.90557265 C12.4887131,9.00157265 12.4510085,9.09382173 12.3842344,9.16159219 C12.3177729,9.22951893 12.2268718,9.26782906 12.1318681,9.26796581 L12.0518877,9.26796581 C11.9214066,9.26775092 11.8016703,9.19578022 11.7403077,9.08069353 L11.6960391,8.99873993 L11.6960391,5.60123077 C11.6960391,5.50614896 11.7336654,5.41296215 11.7995995,5.3451917 C11.8660024,5.27728449 11.956884,5.23897436 12.0518877,5.23881807 L12.1337827,5.23881807 C12.2260317,5.23881807 12.3173822,5.27644444 12.3842344,5.3451917 C12.4510867,5.41364591 12.4885568,5.50554335 12.4887131,5.60123077 L12.4887131,6.89564835 L13.9469597,5.34802442 C13.9802295,5.31239072 14.0206886,5.28414164 14.0655433,5.26515263 C14.1967277,5.21179976 14.3469206,5.24012698 14.449641,5.33765079 L14.5080147,5.39410989 C14.5789109,5.46303297 14.6183541,5.55795849 14.617221,5.65679121 C14.617221,5.75087668 14.5824274,5.83939438 14.5183883,5.90716484 L13.5167179,6.97095971 L14.7188669,8.64289133 C14.7983004,8.75225397 14.8102955,8.89664469 14.7499292,9.01759219 L14.7499292,9.01950672 Z" id="Fill-1"></path>
                </g>
                <polygon id="Fill-3" points="6.04852747 7.77308913 7.10577778 7.77308913 6.5767033 6.59344567"></polygon>
            </g>
        </g>
    </g>
</svg>