<?xml version="1.0" standalone="no"?><!DOCTYPE svg PUBLIC "-//W3C//DTD SVG 1.1//EN" "http://www.w3.org/Graphics/SVG/1.1/DTD/svg11.dtd"><svg class="icon" width="200px" height="157.66px" viewBox="0 0 1299 1024" version="1.1" xmlns="http://www.w3.org/2000/svg"><path d="M1299.613538 873.038769V1024H833.929846v-150.961231h97.201231V204.406154h-4.332308L698.998154 1024h-176.206769L297.984 204.406154H292.233846v668.632615h97.949539V1024H0v-150.961231h50.018462c10.161231 0 20.558769-4.686769 31.192615-14.020923 10.633846-9.373538 15.990154-18.392615 15.990154-27.096615V195.702154c0-8.704-5.316923-18.313846-15.950769-28.868923-10.633846-10.515692-21.070769-15.832615-31.192616-15.872H0V0h487.384615l160.295385 592.896h4.411077L813.804308 0H1299.692308v150.961231h-51.515077c-9.176615 0-19.062154 5.277538-29.735385 15.872-10.633846 10.633846-15.950769 20.243692-15.950769 28.868923v636.219077c0 8.664615 5.198769 17.723077 15.596308 27.096615 10.397538 9.334154 20.440615 14.020923 30.089846 14.020923H1299.692308h-0.07877z" fill="#000000" /></svg>