<?xml version="1.0" standalone="no"?><!DOCTYPE svg PUBLIC "-//W3C//DTD SVG 1.1//EN" "http://www.w3.org/Graphics/SVG/1.1/DTD/svg11.dtd"><svg class="icon" width="200px" height="200.00px" viewBox="0 0 1024 1024" version="1.1" xmlns="http://www.w3.org/2000/svg"><path d="M981.333333 501.76c0-57.813333-48.554667-104.832-108.16-104.832-25.813333 0-49.962667 9.173333-69.461333 25.173333l-1.92 1.109334c-70.314667-43.605333-163.584-71.466667-266.709333-75.221334l61.568-169.770666 153.642666 35.626666c0.128 47.104 39.68 85.376 88.32 85.376 48.64 0 88.32-38.4 88.32-85.589333 0-47.232-39.68-85.632-88.32-85.632a88.32 88.32 0 0 0-81.749333 53.461333l-182.058667-42.197333L499.2 347.562667c-107.562667 1.962667-205.056 30.208-277.973333 75.306666a108.8 108.8 0 0 0-70.442667-25.941333C91.136 396.928 42.666667 443.946667 42.666667 501.76a104.106667 104.106667 0 0 0 49.877333 88.064 178.688 178.688 0 0 0-3.072 31.744C89.472 772.864 278.613333 896 511.146667 896c232.576 0 421.76-123.136 421.76-274.432 0-10.453333-1.066667-20.736-2.816-30.848A104.192 104.192 0 0 0 981.333333 501.76z m-326.741333 135.765333c-36.693333 0-66.432-28.8-66.432-64.426666 0-35.584 29.696-64.426667 66.432-64.426667 36.693333 0 66.432 28.842667 66.432 64.426667 0 35.626667-29.781333 64.426667-66.432 64.426666z m13.226667 109.866667c-2.005333 1.962667-49.664 48.981333-157.397334 48.981333-108.373333 0-151.637333-47.658667-153.472-49.706666a16.170667 16.170667 0 0 1 1.877334-23.210667 17.493333 17.493333 0 0 1 23.893333 1.706667c0.938667 1.024 37.12 38.314667 127.701333 38.314666 92.117333 0 132.522667-38.613333 132.949334-38.997333a17.365333 17.365333 0 0 1 23.936-0.256 16.085333 16.085333 0 0 1 0.469333 23.168z m-357.034667-174.293333c0-35.584 29.696-64.426667 66.474667-64.426667 36.608 0 66.389333 28.842667 66.389333 64.426667 0 35.626667-29.781333 64.426667-66.389333 64.426666-36.778667 0-66.474667-28.8-66.474667-64.426666z" fill="#000000" /></svg>