<?xml version="1.0" standalone="no"?><!DOCTYPE svg PUBLIC "-//W3C//DTD SVG 1.1//EN" "http://www.w3.org/Graphics/SVG/1.1/DTD/svg11.dtd"><svg class="icon" width="200px" height="200.00px" viewBox="0 0 1024 1024" version="1.1" xmlns="http://www.w3.org/2000/svg"><path d="M908.69248 149.85728a8.13056 8.13056 0 0 0-8.73984-0.86016L111.90784 549.09952a8.02816 8.02816 0 0 0 1.22368 14.848l263.79776 83.2512a8.23296 8.23296 0 0 0 7.92576-1.70496l364.93312-326.4256-291.39968 342.39488a8.04864 8.04864 0 0 0 3.86048 12.91776l292.71552 88.5248a7.82336 7.82336 0 0 0 2.33472 0.35328 8.61696 8.61696 0 0 0 4.02944-1.05984 8.15104 8.15104 0 0 0 3.87072-5.12l146.35008-599.04a8.05376 8.05376 0 0 0-2.85696-8.18176z m-360.81152 588.11904L466.944 713.25184a8.13568 8.13568 0 0 0-10.48576 7.68v151.58784a8.13056 8.13056 0 0 0 14.98112 4.32128l80.896-126.86848a8.00768 8.00768 0 0 0-4.4544-11.99616z" fill="#000000" /></svg>