<?xml version="1.0" standalone="no"?><!DOCTYPE svg PUBLIC "-//W3C//DTD SVG 1.1//EN" "http://www.w3.org/Graphics/SVG/1.1/DTD/svg11.dtd"><svg class="icon" width="200px" height="200.00px" viewBox="0 0 1024 1024" version="1.1" xmlns="http://www.w3.org/2000/svg"><path d="M1013.8 307.2s-10-70.6-40.8-101.6c-39-40.8-82.6-41-102.6-43.4-143.2-10.4-358.2-10.4-358.2-10.4h-0.4s-215 0-358.2 10.4c-20 2.4-63.6 2.6-102.6 43.4-30.8 31-40.6 101.6-40.6 101.6S0.2 390 0.2 473v77.6c0 82.8 10.2 165.8 10.2 165.8S20.4 787 51 818c39 40.8 90.2 39.4 113 43.8 82 7.8 348.2 10.2 348.2 10.2s215.2-0.4 358.4-10.6c20-2.4 63.6-2.6 102.6-43.4 30.8-31 40.8-101.6 40.8-101.6s10.2-82.8 10.2-165.8V473c-0.2-82.8-10.4-165.8-10.4-165.8zM406.2 644.8V357l276.6 144.4-276.6 143.4z" fill="#000000" /></svg>