<?xml version="1.0" standalone="no"?><!DOCTYPE svg PUBLIC "-//W3C//DTD SVG 1.1//EN" "http://www.w3.org/Graphics/SVG/1.1/DTD/svg11.dtd"><svg class="icon" width="200px" height="187.20px" viewBox="0 0 1094 1024" version="1.1" xmlns="http://www.w3.org/2000/svg"><path d="M256 335.448276H28.248276v677.958621h227.751724V335.448276z m351.337931 0h-225.986207v677.958621h225.986207V635.586207c0-22.351448 2.930759-41.207172 8.827586-56.496552a135.238621 135.238621 0 0 1 44.137931-58.262069c18.820414-15.289379 42.97269-22.951724 72.386207-22.951724 41.207172 0 70.020414 13.523862 86.510345 40.606897 18.820414 25.882483 28.248276 63.558621 28.248276 112.993103V1013.406897h227.751724v-388.413794h-1.765517c0-101.234759-23.552-177.152-70.62069-227.751724-48.269241-51.800276-111.827862-77.682759-190.675862-77.682758-28.248276 0-54.130759 3.531034-77.682759 10.593103-25.882483 7.062069-45.903448 17.054897-60.027586 30.013793-15.289379 10.593103-28.248276 22.351448-38.841379 35.310345a277.186207 277.186207 0 0 0-28.248276 38.841379V335.448276zM51.2 40.606897c-23.552 22.351448-35.310345 50.599724-35.310345 84.744827 0 34.145103 11.193379 61.793103 33.544828 82.97931 22.351448 22.351448 52.965517 33.544828 91.806896 33.544828 40.006621 0 71.220966-11.193379 93.572414-33.544828 23.552-20.020966 35.310345-47.668966 35.310345-82.97931 0-32.944552-11.758345-61.192828-35.310345-84.744827C210.096552 18.255448 179.482483 7.062069 143.006897 7.062069c-36.475586 0-67.089655 11.193379-91.806897 33.544828z" fill="#000000" /></svg>