<?xml version="1.0" encoding="UTF-8"?>
<svg width="18px" height="18px" viewBox="0 0 18 18" version="1.1" xmlns="http://www.w3.org/2000/svg" xmlns:xlink="http://www.w3.org/1999/xlink">
    <!-- Generator: Sketch 62 (91390) - https://sketch.com -->
    <title>编组 3备份</title>
    <desc>Created with Sketch.</desc>
    <g id="页面-1" stroke="none" stroke-width="1" fill="none" fill-rule="evenodd">
        <g id="Explorer" transform="translate(-1546.000000, -74.000000)" fill="#000000" stroke="#000000">
            <g id="编组-3备份" transform="translate(1547.000000, 75.000000)">
                <path d="M15.1740098,8.40737561 L11.1858927,8.40737561 C11.1283512,11.2765854 10.4666146,13.7470049 9.5131122,15.0401561 C12.6771317,14.3541854 14.993678,11.639922 15.1740098,8.40737561 Z M15.1740098,7.60821463 C14.993678,4.37566829 12.6771317,1.66142439 9.5131122,0.975434146 C10.4673756,2.26858537 11.1283512,4.73976585 11.1850537,7.60821463 L15.1740098,7.60821463 Z M0.810439024,7.60821463 L4.7985561,7.60821463 C4.85601951,4.73900488 5.51783415,2.26858537 6.47125854,0.975434146 C3.30723902,1.66142439 0.990692683,4.37566829 0.810439024,7.60821463 Z M0.810439024,8.40737561 C0.990692683,11.639922 3.30723902,14.3541854 6.47125854,15.0401561 C5.51699512,13.7470049 4.85601951,11.2758244 4.79931707,8.40737561 L0.810439024,8.40737561 Z M10.3850537,8.40737561 L5.59931707,8.40737561 C5.67925854,12.2260488 6.90602927,15.2007415 7.99223415,15.2007415 C9.07912195,15.2007415 10.3051122,12.2260488 10.3858146,8.40737561 L10.3850537,8.40737561 Z M10.3850537,7.60821463 C10.3059512,3.78954146 9.07912195,0.81484878 7.99223415,0.81484878 C6.90526829,0.81484878 5.67925854,3.78954146 5.5985561,7.60821463 L10.3858146,7.60821463 L10.3850537,7.60821463 Z M7.99223415,15.9999805 C3.57812683,15.9999805 0,12.4218537 0,8.0078439 C0,3.59373659 3.57812683,0.0156097561 7.99223415,0.0156097561 C12.4062439,0.0156097561 15.9843707,3.59373659 15.9843707,8.0078439 C15.9843707,12.4218537 12.4062439,15.9999805 7.99223415,15.9999805 Z" id="Fill-1"></path>
            </g>
        </g>
    </g>
</svg>