<?xml version="1.0" encoding="UTF-8"?>
<svg width="114px" height="26px" viewBox="0 0 114 26" version="1.1" xmlns="http://www.w3.org/2000/svg" xmlns:xlink="http://www.w3.org/1999/xlink">
    <!-- Generator: Sketch 61.2 (89653) - https://sketch.com -->
    <title>形状结合</title>
    <desc>Created with Sketch.</desc>
    <g id="页面-1" stroke="none" stroke-width="1" fill="none" fill-rule="evenodd">
        <g id="交易详情" transform="translate(-30.000000, -22.000000)" fill="#000000">
            <path d="M30,22.8072908 L33.7008436,26.4966967 L51.5698904,44.3106706 C46.6355346,49.2297765 38.6351995,49.2297765 33.7008436,44.3106706 C31.3250427,41.942065 30.0930747,38.8649935 30.0050768,35.7618193 L30,35.4036837 L30,22.8072908 Z M52.950356,25.6893294 C55.326157,28.057935 56.5579827,31.1350065 56.64597,34.2381807 L56.6510462,34.5963163 L56.6510462,47.1927092 L52.950356,43.5033033 L35.0811558,25.6893294 C40.0156651,20.7702235 48.0158467,20.7702235 52.950356,25.6893294 Z M95.879753,31.2567467 C98.531056,31.2567467 101.074143,33.2553298 101.074143,36.7483489 C101.074143,40.2053576 98.4408756,42.2219459 95.8977891,42.2219459 C94.4549032,42.2219459 93.1923779,41.6997936 92.4528989,40.7635204 L92.4528989,40.7635204 L92.4528989,46.849296 L90.0360649,46.849296 L90.0360649,31.4728097 L92.4528989,31.4728097 L92.4528989,32.8772195 C93.1923779,31.8869305 94.4368671,31.2567467 95.879753,31.2567467 Z M111.066128,31.2567467 C114.096188,31.2567467 116.531058,33.6694506 116.531058,36.7483489 C116.531058,39.7732315 114.096188,42.2219459 111.066128,42.2219459 C108.018031,42.2219459 105.601197,39.7732315 105.601197,36.7483489 C105.601197,33.6694506 108.018031,31.2567467 111.066128,31.2567467 Z M130.509016,31.2567467 C133.647293,31.2567467 135.937875,33.5614191 135.937875,36.6763279 L135.937875,36.6763279 L135.937875,37.5945958 L127.352703,37.5945958 C127.695389,39.0890319 128.867733,40.0793208 130.599197,40.0793208 C131.969938,40.0793208 133.016031,39.3591107 133.521041,38.2247797 L133.521041,38.2247797 L135.523045,39.3771159 C134.603205,41.087615 132.979958,42.2219459 130.599197,42.2219459 C127.280559,42.2219459 125.02605,39.809242 125.02605,36.7663542 C125.02605,33.6874559 127.424847,31.2567467 130.509016,31.2567467 Z M77.6452816,28.862048 L77.6452816,31.2027309 L72.2885675,31.2027309 L72.2885675,34.2276135 L77.6452816,34.2276135 L77.6452816,36.5682964 L72.2885675,36.5682964 L72.2885675,39.6652 L77.6452816,39.6652 L77.6452816,42.0058829 L69.8356614,42.0058829 L69.8356614,28.862048 L77.6452816,28.862048 Z M81.4689295,31.4728097 L83.8677274,34.8217868 L86.2484892,31.4728097 L89.1342612,31.4728097 L85.3466855,36.6763279 L89.3867662,42.0058829 L86.4108139,42.0058829 L83.8316552,38.4948585 L81.3246409,42.0058829 L78.3486886,42.0058829 L82.316625,36.6403174 L78.4929772,31.4728097 L81.4689295,31.4728097 Z M104.537069,28.6819955 L104.537069,42.0058829 L102.084163,42.0058829 L102.084163,28.6819955 L104.537069,28.6819955 Z M120.012021,31.4728097 L120.012021,33.0392668 C120.498995,31.9949621 121.400799,31.4728097 122.717432,31.4728097 C123.492983,31.4728097 124.088174,31.6528622 124.575148,31.922941 L124.575148,31.922941 L123.655308,34.2276135 C123.294586,33.9935452 122.897793,33.8134926 122.194386,33.8134926 C120.769536,33.8134926 120.030057,34.5697133 120.030057,36.3882439 L120.030057,36.3882439 L120.030057,42.0058829 L117.595187,42.0058829 L117.595187,31.4728097 L120.012021,31.4728097 Z M139.436873,31.4728097 L139.436873,33.0392668 C139.923847,31.9949621 140.825651,31.4728097 142.142284,31.4728097 C142.917836,31.4728097 143.513026,31.6528622 144,31.922941 L143.08016,34.2276135 C142.719439,33.9935452 142.322645,33.8134926 141.619238,33.8134926 C140.194388,33.8134926 139.454909,34.5697133 139.454909,36.3882439 L139.454909,42.0058829 L137.020039,42.0058829 L137.020039,31.4728097 L139.436873,31.4728097 Z M95.5009955,33.4713928 C93.6793519,33.4713928 92.3627185,34.9118131 92.3627185,36.7123384 C92.3627185,38.530869 93.6793519,39.9892945 95.5009955,39.9892945 C97.2865669,39.9892945 98.6753446,38.5488743 98.6753446,36.7123384 C98.6753446,34.8938078 97.2865669,33.4713928 95.5009955,33.4713928 Z M111.066128,33.5434138 C109.316629,33.5434138 107.999995,34.9658289 107.999995,36.7483489 C107.999995,38.4948585 109.316629,39.9352788 111.066128,39.9352788 C112.797591,39.9352788 114.132261,38.4948585 114.132261,36.7483489 C114.132261,34.9658289 112.797591,33.5434138 111.066128,33.5434138 Z M130.509016,33.3993718 C129.048094,33.3993718 127.911821,34.263624 127.478956,35.5600022 L127.478956,35.5600022 L133.466932,35.5600022 C133.106211,34.1375872 132.024046,33.3993718 130.509016,33.3993718 Z" id="形状结合"></path>
        </g>
    </g>
</svg>