<?xml version="1.0" encoding="UTF-8"?>
<svg width="19px" height="18px" viewBox="0 0 19 18" version="1.1" xmlns="http://www.w3.org/2000/svg" xmlns:xlink="http://www.w3.org/1999/xlink">
    <!-- Generator: Sketch 62 (91390) - https://sketch.com -->
    <title>Fill 1</title>
    <desc>Created with Sketch.</desc>
    <g id="页面-1" stroke="none" stroke-width="1" fill="none" fill-rule="evenodd">
        <g id="Explorer" transform="translate(-1547.000000, -99.000000)" fill="#000000" stroke="#000000" stroke-width="0.5">
            <path d="M1558.66666,100 C1559.08746,100 1559.42856,100.341093 1559.42856,100.761896 L1559.42856,104.571445 L1564,104.571445 C1564.42078,104.571445 1564.7619,104.912538 1564.7619,105.333341 L1564.7619,115.238104 C1564.7619,115.658907 1564.42078,116 1564,116 L1554.09521,116 C1553.67443,116 1553.33334,115.658907 1553.33334,115.238104 L1553.33334,111.428555 L1548.7619,111.428555 C1548.34109,111.428555 1548,111.087462 1548,110.666659 L1548,100.761896 C1548,100.341093 1548.34109,100 1548.7619,100 L1558.66666,100 Z M1557.90476,101.523793 L1549.52379,101.523793 L1549.52379,109.904763 L1557.90476,109.904763 L1557.90476,107.619007 L1559.42856,107.619007 L1559.42856,110.666659 C1559.42856,111.087462 1559.08746,111.428555 1558.66666,111.428555 L1554.85711,111.428555 L1554.85711,114.476207 L1563.2381,114.476207 L1563.2381,106.095215 L1554.85711,106.095215 L1554.85711,108.380903 L1553.33334,108.380903 L1553.33334,105.333341 C1553.33334,105.131221 1553.41363,104.937471 1553.55647,104.794569 C1553.69937,104.651668 1553.89321,104.571445 1554.09521,104.571445 L1557.90476,104.571445 L1557.90476,101.523793 Z" id="Fill-1"></path>
        </g>
    </g>
</svg>