<?xml version="1.0" encoding="UTF-8"?>
<svg width="23px" height="16px" viewBox="0 0 23 16" version="1.1" xmlns="http://www.w3.org/2000/svg" xmlns:xlink="http://www.w3.org/1999/xlink">
    <!-- Generator: Sketch 62 (91390) - https://sketch.com -->
    <title>wifi</title>
    <desc>Created with Sketch.</desc>
    <g id="页面-1" stroke="none" stroke-width="1" fill="none" fill-rule="evenodd">
        <g id="Explorer" transform="translate(-1573.000000, -74.000000)" fill="#000000" fill-rule="nonzero">
            <g id="wifi" transform="translate(1573.000000, 74.000000)">
                <path d="M4.08450704,8.77640845 L6.0915493,10.7834507 C7.6056338,9.33978873 9.29577465,8.63556338 11.2323944,8.67077465 C13.1690141,8.70598592 14.8591549,9.41021127 16.3380282,10.818662 L18.3802817,8.77640845 C16.2676056,6.80457746 13.8732394,5.7834507 11.1971831,5.7834507 C8.55633803,5.74823944 6.16197183,6.7693662 4.08450704,8.77640845 L4.08450704,8.77640845 Z M8.16901408,12.8609155 L11.2323944,15.9242958 L14.2957746,12.8609155 C13.415493,11.9806338 12.4295775,11.5580986 11.2676056,11.5580986 C10.1408451,11.5580986 9.11971831,11.9806338 8.16901408,12.8609155 L8.16901408,12.8609155 Z" id="形状"></path>
                <path d="M11.2676056,0.0088028169 C7.04225352,0.0088028169 3.30985915,1.52288732 0,4.62147887 L2.07746479,6.69894366 C4.75352113,4.16373239 7.81690141,2.89612676 11.2676056,2.89612676 C14.7183099,2.89612676 17.7816901,4.19894366 20.4929577,6.7693662 L22.5352113,4.72711268 C19.2253521,1.59330986 15.4577465,0.0088028169 11.2676056,0.0088028169 Z" id="路径"></path>
            </g>
        </g>
    </g>
</svg>