<?xml version="1.0" encoding="UTF-8"?>
<svg width="14px" height="14px" viewBox="0 0 14 14" version="1.1" xmlns="http://www.w3.org/2000/svg" xmlns:xlink="http://www.w3.org/1999/xlink">
    <!-- Generator: Sketch 55.2 (78181) - https://sketchapp.com -->
    <title>关闭备份 4</title>
    <desc>Created with Sketch.</desc>
    <g id="页面1" stroke="none" stroke-width="1" fill="none" fill-rule="evenodd">
        <g id="H5" transform="translate(-612.000000, -7286.000000)" fill="#000000" fill-rule="nonzero">
            <path d="M617.997152,7286 L620.000831,7286 L620.000831,7292.08517 L626,7292.08517 L626,7294.08878 L620.000831,7294.08878 L620.000831,7300 L617.997152,7300 L617.997152,7294.08878 L612,7294.08878 L612,7292.08517 L617.997152,7292.08517 L617.997152,7286 Z M618.580486,7292.08517 L617.997152,7292.6685 L617.997152,7292.08517 L618.580486,7292.08517 Z M618.834164,7287.16667 L618.834164,7286.91299 L618.998992,7286.74816 L619.163819,7286.91299 L619.163819,7287.16667 L618.834164,7287.16667 Z M624.833333,7292.92212 L625.086947,7292.92212 L625.251807,7293.08698 L625.086947,7293.25184 L624.833333,7293.25184 L624.833333,7292.92212 Z M619.163819,7298.83333 L619.163819,7299.08701 L618.998992,7299.25184 L618.834164,7299.08701 L618.834164,7298.83333 L619.163819,7298.83333 Z M613.166667,7293.25184 L612.913053,7293.25184 L612.748193,7293.08698 L612.913053,7292.92212 L613.166667,7292.92212 L613.166667,7293.25184 Z" id="关闭备份-4" transform="translate(619.000000, 7293.000000) rotate(-270.000000) translate(-619.000000, -7293.000000) "></path>
        </g>
    </g>
</svg>