<?xml version="1.0" encoding="UTF-8"?>
<svg width="15px" height="16px" viewBox="0 0 15 16" version="1.1" xmlns="http://www.w3.org/2000/svg" xmlns:xlink="http://www.w3.org/1999/xlink">
    <!-- Generator: Sketch 62 (91390) - https://sketch.com -->
    <title>Fill 1</title>
    <desc>Created with Sketch.</desc>
    <g id="页面-1" stroke="none" stroke-width="1" fill="none" fill-rule="evenodd">
        <g id="Explorer" transform="translate(-1511.000000, -28.000000)" fill="#000000" stroke="#000000">
            <path d="M1523.00235,39.1272983 C1523.87801,38.0556004 1524.42548,36.7063192 1524.42548,35.215237 C1524.42548,31.7846632 1521.64332,29.0024957 1518.21274,29.0024957 C1514.78217,29.0024957 1512,31.7846632 1512,35.215237 C1512,38.6458108 1514.78217,41.4279783 1518.21274,41.4279783 C1519.70382,41.4279783 1521.0531,40.8805047 1522.1248,40.004848 L1525.12245,43.0024957 L1526.00199,42.123053 L1523.00235,39.1272983 Z M1518.21274,40.1854543 C1515.46746,40.1854543 1513.24252,37.9605163 1513.24252,35.215237 C1513.24252,32.4699576 1515.46746,30.2450197 1518.21274,30.2450197 C1520.95802,30.2450197 1523.18296,32.4699576 1523.18296,35.215237 C1523.18296,37.9605163 1520.95802,40.1854543 1518.21274,40.1854543 Z" id="Fill-1"></path>
        </g>
    </g>
</svg>