<?xml version="1.0" encoding="UTF-8"?>
<svg width="80px" height="80px" viewBox="0 0 80 80" version="1.1" xmlns="http://www.w3.org/2000/svg" xmlns:xlink="http://www.w3.org/1999/xlink">
    <!-- Generator: Sketch 62 (91390) - https://sketch.com -->
    <title>编组 2</title>
    <desc>Created with Sketch.</desc>
    <g id="页面-1" stroke="none" stroke-width="1" fill="none" fill-rule="evenodd">
        <g id="其他" transform="translate(-808.000000, -170.000000)">
            <g id="编组-2" transform="translate(808.000000, 170.000000)">
                <circle id="Oval-9" fill="#FFFFFF" cx="40" cy="40" r="40"></circle>
                <g id="编组-4" transform="translate(22.222222, 16.888889)" fill="#000000">
                    <rect id="矩形" x="0" y="35.2592593" width="2.66666667" height="10.6666667" rx="1.33333333"></rect>
                    <rect id="矩形复制-2" x="16.5925926" y="40.8888889" width="2.66666667" height="10.6666667" rx="1.33333333"></rect>
                    <rect id="矩形复制-3" x="32" y="39.4074074" width="2.66666667" height="7.11111111" rx="1.33333333"></rect>
                    <g id="编组复制" fill-rule="nonzero">
                        <polygon id="Stroke-1" points="1.52117705 3.83509411 34.147629 36.4611838 36.2689376 34.3398516 -1.47882295 -3.40748971 -1.47882295 17.80716 1.52117705 17.80716"></polygon>
                        <path d="M6.23481402,29.1867635 C3.17445355,26.126055 1.5209652,22.047626 1.52133313,17.8046722 L-1.47866687,17.804412 C-1.47910312,22.8351497 0.484624042,27.6788015 4.11343337,31.3080235 C11.5701032,38.7646934 23.659703,38.7646934 31.1159187,31.3080537 L32.1765268,30.2473852 L6.23480569,4.30607143 L4.113502,6.42740843 L27.8851514,30.1986846 C21.5628094,35.4514379 12.1621898,35.1141393 6.23481402,29.1867635 Z" id="Stroke-3"></path>
                        <polygon id="Stroke-5" points="1.08234515 -0.846897046 -1.03897519 1.2744233 36.7084005 39.021799 36.7084005 17.8071209 33.7084005 17.8071209 33.7084005 31.7791583"></polygon>
                        <path d="M28.9948327,6.42739119 C32.0548033,9.48736176 33.7082833,13.5650178 33.7082833,17.8072381 L36.7082833,17.8072381 C36.7082833,12.7772728 34.7445285,7.93444628 31.1161229,4.30604068 C23.6594952,-3.15016305 11.5703559,-3.15016305 4.11375827,4.30601052 L3.05302945,5.36667902 L28.9948109,31.3080531 L31.1161146,29.1867161 L7.34452633,5.41550114 C13.6671705,0.163063273 23.0674644,0.500359954 28.9948327,6.42739119 Z" id="Stroke-7"></path>
                    </g>
                </g>
            </g>
        </g>
    </g>
</svg>